<?xml version="1.0" encoding="UTF-8" standalone="no"?>
<!DOCTYPE svg PUBLIC "-//W3C//DTD SVG 1.1//EN" "http://www.w3.org/Graphics/SVG/1.1/DTD/svg11.dtd">
<svg width="100%" height="100%" viewBox="0 0 348 129" version="1.1" xmlns="http://www.w3.org/2000/svg" xmlns:xlink="http://www.w3.org/1999/xlink" xml:space="preserve" xmlns:serif="http://www.serif.com/" style="fill-rule:evenodd;clip-rule:evenodd;stroke-linejoin:round;stroke-miterlimit:2;">
    <circle cx="60.249" cy="43.011" r="12" style="fill:rgb(245,243,238);"/>
    <circle cx="36" cy="85.011" r="12" style="fill:rgb(245,243,238);"/>
    <circle cx="84.497" cy="85.011" r="12" style="fill:rgb(242,183,5);"/>
    <g transform="matrix(1,0,0,1,128.497,49.128)">
        <text x="0px" y="0px" style="font-family:'Arial-BoldMT', 'Arial', sans-serif;font-weight:700;font-size:36px;fill:rgb(245,243,238);">M<tspan x="30.334px 58.681px 85.025px 111.369px " y="0px 0px 0px 0px ">ODUS</tspan></text>
    </g>
    <g transform="matrix(1,0,0,1,128.497,81.128)">
        <text x="0px" y="0px" style="font-family:'Arial-BoldMT', 'Arial', sans-serif;font-weight:700;font-size:12px;fill:rgb(216,214,207);">ΦΡΟΝ<tspan x="35.969px " y="0px ">Τ</tspan>ΙΣΤ<tspan x="61.279px " y="0px ">Η</tspan>ΡΙΟ<tspan x="90.732px " y="0px "> </tspan>ΜΑ<tspan x="112.493px 121.855px " y="0px 0px ">ΘΗ</tspan>ΜΑ<tspan x="148.274px 155.633px " y="0px 0px ">ΤΙ</tspan>ΚΩΝ</text>
    </g>
    <g transform="matrix(1,0,0,1,128.497,101.128)">
        <text x="0px" y="0px" style="font-family:'ArialMT', 'Arial', sans-serif;font-size:12px;fill:rgb(156,153,143);">Βάγιος <tspan x="39.499px 47.518px 53.35px 60.302px 66.293px 72.981px " y="0px 0px 0px 0px 0px 0px ">Βλάχος</tspan></text>
    </g>
</svg>
